<svg width="48" height="48" viewBox="0 0 48 48" fill="none" xmlns="http://www.w3.org/2000/svg">
<g filter="url(#filter0_d_118_93)">
<path d="M8.69428 22.1797C8.24123 22.7006 8.29623 23.4901 8.81713 23.9432C9.33803 24.3962 10.1276 24.3412 10.5806 23.8203L8.69428 22.1797ZM27.9755 3.82032C28.4286 3.29942 28.3736 2.50988 27.8527 2.05683C27.3318 1.60378 26.5422 1.65878 26.0892 2.17968L27.9755 3.82032ZM43.6943 23.8203C44.1473 24.3412 44.9369 24.3962 45.4578 23.9432C45.9787 23.4901 46.0337 22.7006 45.5806 22.1797L43.6943 23.8203ZM28.1857 2.17968C27.7327 1.65878 26.9431 1.60378 26.4222 2.05683C25.9013 2.50988 25.8463 3.29942 26.2994 3.82032L28.1857 2.17968ZM23 28.25C23.6904 28.25 24.25 27.6904 24.25 27C24.25 26.3096 23.6904 25.75 23 25.75V28.25ZM17 25.75C16.3096 25.75 15.75 26.3096 15.75 27C15.75 27.6904 16.3096 28.25 17 28.25V25.75ZM38.25 19C38.25 18.3096 37.6904 17.75 37 17.75C36.3096 17.75 35.75 18.3096 35.75 19H38.25ZM35.75 35C35.75 35.6904 36.3096 36.25 37 36.25C37.6904 36.25 38.25 35.6904 38.25 35H35.75ZM27.25 19C27.25 18.3096 26.6904 17.75 26 17.75C25.3096 17.75 24.75 18.3096 24.75 19H27.25ZM24.75 35C24.75 35.6904 25.3096 36.25 26 36.25C26.6904 36.25 27.25 35.6904 27.25 35H24.75ZM37.6375 17.25C38.3278 17.25 38.8875 16.6904 38.8875 16C38.8875 15.3096 38.3278 14.75 37.6375 14.75V17.25ZM16.6375 16V14.75C15.9471 14.75 15.3875 15.3096 15.3875 16H16.6375ZM37 28.25C37.6904 28.25 38.25 27.6904 38.25 27C38.25 26.3096 37.6904 25.75 37 25.75V28.25ZM27 25.75C26.3096 25.75 25.75 26.3096 25.75 27C25.75 27.6904 26.3096 28.25 27 28.25V25.75ZM37.6375 39.25C38.3278 39.25 38.8875 38.6904 38.8875 38C38.8875 37.3096 38.3278 36.75 37.6375 36.75V39.25ZM16.6375 38H15.3875C15.3875 38.6904 15.9471 39.25 16.6375 39.25V38ZM10.5806 23.8203L27.9755 3.82032L26.0892 2.17968L8.69428 22.1797L10.5806 23.8203ZM45.5806 22.1797L28.1857 2.17968L26.2994 3.82032L43.6943 23.8203L45.5806 22.1797ZM23 25.75H17V28.25H23V25.75ZM37.6375 14.75H16.6375V17.25H37.6375V14.75ZM37 25.75H27V28.25H37V25.75ZM37.6375 36.75H16.6375V39.25H37.6375V36.75ZM35.75 19V35H38.25V19H35.75ZM24.75 19V35H27.25V19H24.75ZM15.3875 16V38H17.8875V16H15.3875Z" fill="black"/>
</g>
<defs>
<filter id="filter0_d_118_93" x="0.387436" y="0.749985" width="47.5" height="47.5" filterUnits="userSpaceOnUse" color-interpolation-filters="sRGB">
<feFlood flood-opacity="0" result="BackgroundImageFix"/>
<feColorMatrix in="SourceAlpha" type="matrix" values="0 0 0 0 0 0 0 0 0 0 0 0 0 0 0 0 0 0 127 0" result="hardAlpha"/>
<feOffset dx="-3" dy="4"/>
<feGaussianBlur stdDeviation="2.5"/>
<feComposite in2="hardAlpha" operator="out"/>
<feColorMatrix type="matrix" values="0 0 0 0 0 0 0 0 0 0 0 0 0 0 0 0 0 0 0.25 0"/>
<feBlend mode="normal" in2="BackgroundImageFix" result="effect1_dropShadow_118_93"/>
<feBlend mode="normal" in="SourceGraphic" in2="effect1_dropShadow_118_93" result="shape"/>
</filter>
</defs>
</svg>
